<svg viewBox="0 0 280 110" xmlns="http://www.w3.org/2000/svg" role="img" aria-label="Renault 5 illustration">
  <ellipse cx="140" cy="100" rx="108" ry="3.5" fill="#000" opacity="0.5"/>
  <path d="M 33,84 C 33,73 36,69 47,68 L 57,66 L 65,42 C 67,36 73,33 81,33 L 199,33 C 207,33 213,36 215,42 L 223,66 L 233,68 C 244,69 247,73 247,84 L 247,87 L 33,87 Z" fill="#FFD400"/>
  <path d="M 76,42 C 77,38 81,36 85,36 L 195,36 C 199,36 203,38 204,42 L 211,62 L 69,62 Z" fill="#0c0f18" opacity="0.92"/>
  <rect x="138" y="36" width="3.5" height="26" fill="#FFD400"/>
  <line x1="50" y1="76" x2="230" y2="76" stroke="#0a0d14" stroke-width="0.7" opacity="0.35"/>
  <rect x="98" y="73" width="13" height="2" rx="1" fill="#0a0d14" opacity="0.55"/>
  <rect x="170" y="73" width="13" height="2" rx="1" fill="#0a0d14" opacity="0.55"/>
  <line x1="138" y1="62" x2="138" y2="86" stroke="#0a0d14" stroke-width="0.6" opacity="0.3"/>
  <path d="M 55,87 Q 75,67 95,87 Z" fill="#0a0d14" opacity="0.18"/>
  <path d="M 185,87 Q 205,67 225,87 Z" fill="#0a0d14" opacity="0.18"/>
  <g>
    <circle cx="75" cy="86" r="14" fill="#0a0d14"/>
    <circle cx="75" cy="86" r="10.5" fill="#1a2030"/>
    <line x1="75" y1="77" x2="75" y2="95" stroke="#5a5a5a" stroke-width="1.6"/>
    <line x1="66" y1="86" x2="84" y2="86" stroke="#5a5a5a" stroke-width="1.6"/>
    <line x1="68.5" y1="79.5" x2="81.5" y2="92.5" stroke="#5a5a5a" stroke-width="1.6"/>
    <line x1="68.5" y1="92.5" x2="81.5" y2="79.5" stroke="#5a5a5a" stroke-width="1.6"/>
    <circle cx="75" cy="86" r="3.2" fill="#777"/>
  </g>
  <g>
    <circle cx="205" cy="86" r="14" fill="#0a0d14"/>
    <circle cx="205" cy="86" r="10.5" fill="#1a2030"/>
    <line x1="205" y1="77" x2="205" y2="95" stroke="#5a5a5a" stroke-width="1.6"/>
    <line x1="196" y1="86" x2="214" y2="86" stroke="#5a5a5a" stroke-width="1.6"/>
    <line x1="198.5" y1="79.5" x2="211.5" y2="92.5" stroke="#5a5a5a" stroke-width="1.6"/>
    <line x1="198.5" y1="92.5" x2="211.5" y2="79.5" stroke="#5a5a5a" stroke-width="1.6"/>
    <circle cx="205" cy="86" r="3.2" fill="#777"/>
  </g>
  <rect x="238" y="65" width="9" height="7" rx="1.5" fill="#fff" opacity="0.95"/>
  <rect x="33" y="65" width="6" height="7" rx="1.5" fill="#ff3a3a" opacity="0.85"/>
  <path d="M 65,42 L 76,42" stroke="#0a0d14" stroke-width="0.5" opacity="0.4"/>
  <path d="M 204,42 L 215,42" stroke="#0a0d14" stroke-width="0.5" opacity="0.4"/>
</svg>
